# xmcd
#
# Track frame offsets:
#	150
#	14073
#	32489
#	53443
#	66613
#	81848
#	103546
#	115073
#	130029
#	148400
#	166541
#	185881
#
# Disc length: 2777 seconds
# Revision: 1
# Processed by: cddbd v1.5.2PL0 Copyright (c) Steve Scherf et al.
# Submitted via: dBpowerAMP V12.0
#
DISCID=a40ad70c
DTITLE=Wynonna Judd - Sing: Chapter 1
DYEAR=2008
DGENRE=Country
TTITLE0=That's How Rhythm Was Born
TTITLE1=I'm So Lonesome I Could Cry
TTITLE2=Women Be Wise
TTITLE3=I Hear You Knockin'
TTITLE4=Till I Get It Right
TTITLE5=Are the Good Times Really Over
TTITLE6=The House Is Rockin'
TTITLE7=Ain't No Sunshine
TTITLE8=I'm a Woman
TTITLE9=Anyone Who Had a Heart
TTITLE10=When I Fall in Love
TTITLE11=Sing
EXTD=
EXTT0=
EXTT1=
EXTT2=
EXTT3=
EXTT4=
EXTT5=
EXTT6=
EXTT7=
EXTT8=
EXTT9=
EXTT10=
EXTT11=
PLAYORDER=
